<?xml version="1.0" encoding="utf-8"?>
<!-- Generator: Adobe Illustrator 28.0.0, SVG Export Plug-In . SVG Version: 6.00 Build 0)  -->
<svg version="1.1" id="_圖層_1" xmlns="http://www.w3.org/2000/svg" xmlns:xlink="http://www.w3.org/1999/xlink" x="0px" y="0px"
	 viewBox="0 0 600 600" style="enable-background:new 0 0 600 600;" xml:space="preserve">
<style type="text/css">
	.st0{fill:#FF4448;}
	.st1{fill:#FF666E;}
</style>
<path class="st0" d="M-307,600c-165.7,0-300-134.3-300-300S-472.7,0-307,0V600z"/>
<path class="st1" d="M-307,0C-141.3,0-7,134.3-7,300s-134.3,300-300,300V0z"/>
<path class="st0" d="M279.2,502.3c27.3-29.7,52.5-57.6,75.1-83.2c37.1-42,66.3-82.4,87.1-119.8c22.1-40,33.4-80.3,33.4-119.8
	c0-34.8-7.3-66-21.6-92.8c-14.7-27.5-36.1-49.3-63.6-64.5C362.8,7.3,330.3-0.3,293.4-0.3S220.8,8.6,191.8,26
	c-27,16.2-52,37.3-74.4,62.5l-19.2,21.4l71.9,67.9l20.3-24.6c13.8-16.9,30-31.2,48.1-42.5c16-10.1,32.7-15,50.8-15
	c20.4,0,36.8,3.5,48.4,10.8c11.3,6.9,19.4,16,24.8,27.7c5.9,13.3,9.1,28.9,9.1,46.1c0,25.7-8.4,53.3-25.3,82.4
	c-18.4,31.9-46.2,68.9-82.9,110c-37.5,42.2-85.4,92.8-142.5,150.2l-8.6,8.6v69H502V502H296.4C290.9,502,285.1,502.2,279.2,502.3
	L279.2,502.3z"/>
</svg>
