<?xml version="1.0" encoding="utf-8"?>
<!-- Generator: Adobe Illustrator 28.0.0, SVG Export Plug-In . SVG Version: 6.00 Build 0)  -->
<svg version="1.1" id="_圖層_1" xmlns="http://www.w3.org/2000/svg" xmlns:xlink="http://www.w3.org/1999/xlink" x="0px" y="0px"
	 viewBox="0 0 600 600" style="enable-background:new 0 0 600 600;" xml:space="preserve">
<style type="text/css">
	.st0{fill:#FF4448;}
</style>
<path class="st0" d="M478.6,344.2c-12.7-22.2-30.2-40.8-51.9-55.4c-3.1-2-6.3-4.1-9.5-5.9c9.8-7.5,19-15.8,27.1-24.9
	c23.6-26.3,35.4-60.3,35.4-101c0-32.9-8.1-61.5-24.2-85.4c-15.8-23.4-37.5-41.5-64.4-53.7C365.2,6.1,336.1,0,304.6,0
	c-35.3,0-66.9,7.5-94.4,22.4c-25.3,13.7-48.5,30.5-69,49.8l-20.3,19.2l65.4,74.9l22-25.1c11.9-13.6,26.6-25.1,43.6-34.1
	c16.1-8.6,33-12.7,51.9-12.7c23.6,0,41,5.8,53.7,17.8c12.2,11.5,18.1,27.1,18.1,47.5c0,14.9-3.6,28.1-11,40.3
	c-6.8,11.4-19,20.8-36.1,28.1c-19.2,8.3-46.9,12.4-82.5,12.4h-29.1v94.4H246c39,0,70.3,4.4,93,12.9c20.3,7.6,34.9,17.8,43.6,30.3
	c8.6,12.5,12.9,27.3,12.9,45.1c0,16.8-3.6,30.7-11,42.5c-7.6,12-17.6,21.2-30.7,28c-13.4,6.9-29.8,10.3-48.6,10.3
	c-28.8,0-52.4-5.4-69.7-16.1c-20-12.2-37.1-25.6-51.2-40l-22.7-23.4l-59.8,73.2l16.3,18.6c12.2,13.9,26.9,27.1,44.2,39.7
	c17.8,13,38.6,23.7,62,31.7c23.7,8.1,51.2,12.4,81.9,12.4c34.7,0,66.9-7.1,95.4-21c29.1-14.2,52.7-34.7,70.2-61
	c17.6-26.6,26.6-58.5,26.6-94.7C498.3,393.7,491.7,367.1,478.6,344.2L478.6,344.2z"/>
</svg>
