<svg width="127" height="130" viewBox="0 0 127 130" fill="none" xmlns="http://www.w3.org/2000/svg">
<path d="M87.3125 50.9162L39.6875 22.8037" stroke="#5A5B90" stroke-width="5" stroke-linecap="round" stroke-linejoin="round"/>
<path d="M111.125 86.667V43.3336C111.123 41.4339 110.633 39.568 109.704 37.9232C108.776 36.2785 107.441 34.9127 105.833 33.9628L68.7917 12.2961C67.1828 11.3453 65.3578 10.8447 63.5 10.8447C61.6422 10.8447 59.8172 11.3453 58.2083 12.2961L21.1667 33.9628C19.5594 34.9127 18.2244 36.2785 17.2956 37.9232C16.3668 39.568 15.8769 41.4339 15.875 43.3336V86.667C15.8769 88.5667 16.3668 90.4326 17.2956 92.0773C18.2244 93.7221 19.5594 95.0879 21.1667 96.0378L58.2083 117.704C59.8172 118.655 61.6422 119.156 63.5 119.156C65.3578 119.156 67.1828 118.655 68.7917 117.704L105.833 96.0378C107.441 95.0879 108.776 93.7221 109.704 92.0773C110.633 90.4326 111.123 88.5667 111.125 86.667Z" stroke="#5A5B90" stroke-width="5" stroke-linecap="round" stroke-linejoin="round"/>
<path d="M17.3038 37.7002L63.5 65.0544L109.696 37.7002" stroke="#5A5B90" stroke-width="5" stroke-linecap="round" stroke-linejoin="round"/>
<path d="M63.5 119.6V65" stroke="#5A5B90" stroke-width="5" stroke-linecap="round" stroke-linejoin="round"/>
</svg>
