<svg width="128" height="130" viewBox="0 0 128 130" fill="none" xmlns="http://www.w3.org/2000/svg">
<path d="M101.333 21.667H26.6667C20.7756 21.667 16 26.5172 16 32.5003V108.334C16 114.317 20.7756 119.167 26.6667 119.167H101.333C107.224 119.167 112 114.317 112 108.334V32.5003C112 26.5172 107.224 21.667 101.333 21.667Z" stroke="#FF4448" stroke-width="5" stroke-linecap="round" stroke-linejoin="round"/>
<path d="M85.3333 10.833V32.4997" stroke="#FF4448" stroke-width="5" stroke-linecap="round" stroke-linejoin="round"/>
<path d="M42.6667 10.833V32.4997" stroke="#FF4448" stroke-width="5" stroke-linecap="round" stroke-linejoin="round"/>
<path d="M16 54.167H112" stroke="#FF4448" stroke-width="5" stroke-linecap="round" stroke-linejoin="round"/>
<path d="M48.9496 96.8527L48.9836 96.8705L49.0182 96.8872C51.1307 97.9077 53.3018 98.7161 55.5299 99.3096C56.075 99.4548 56.6155 99.5833 57.1512 99.6945V106V108.5H59.6512H66.9767H69.4767V106V99.249C70.7288 98.8843 71.911 98.4134 73.0182 97.8302C76.1263 96.2191 78.5309 93.9514 80.1221 91.0181C81.7277 88.0989 82.5 84.8178 82.5 81.2402C82.5 78.5653 82.0376 76.1245 81.0049 74.0055C80.0895 71.9818 78.8433 70.2317 77.2561 68.7918C75.779 67.4037 74.1412 66.2111 72.3479 65.2148C70.726 64.2874 69.0776 63.4357 67.4029 62.66C65.8679 61.8787 64.459 61.1253 63.1749 60.3997C62.0544 59.7666 61.2109 59.0909 60.5929 58.3964C60.2101 57.9231 60.0053 57.3732 60.0053 56.6309C60.0053 54.9812 60.4558 54.2466 60.8976 53.8721L60.9206 53.8526L60.9432 53.8325C61.5238 53.3158 62.5274 52.8845 64.3129 52.8845C65.9081 52.8845 67.1713 53.195 68.1807 53.7259L68.2115 53.7421L68.2428 53.7575C69.3852 54.3184 70.6599 55.2275 72.0611 56.5607L73.9701 58.377L75.6836 56.3752L81.1593 49.9783L82.5952 48.3008L81.1079 46.6687C79.0408 44.4004 76.6434 42.5435 73.9263 41.1052C72.5619 40.37 71.0745 39.8251 69.4767 39.4557V33V30.5H66.9767H59.6512H57.1512V33V39.7415C55.9671 40.0866 54.837 40.5349 53.7647 41.0909L53.7556 41.0956L53.7467 41.1003C50.8782 42.6174 48.608 44.7724 46.9866 47.5405L46.9767 47.5575L46.967 47.5746C45.3902 50.3663 44.6459 53.5634 44.6459 57.0825C44.6459 59.6283 45.091 61.9682 46.0731 64.0284L46.0796 64.042L46.0863 64.0555C47.0158 65.9463 48.2691 67.6058 49.8351 69.0215L49.8518 69.0366L49.8688 69.0515C51.3732 70.3629 52.9874 71.5124 54.7099 72.4978L54.7242 72.506L54.7386 72.514C56.3743 73.4214 57.9857 74.3038 59.5727 75.1613L59.6001 75.1761L59.6279 75.1903C61.1414 75.9599 62.524 76.7472 63.7787 77.5507L63.7959 77.5617L63.8134 77.5725C64.9883 78.298 65.8184 79.052 66.3818 79.804C66.8129 80.3795 67.0666 81.0936 67.0666 82.068C67.0666 83.7357 66.6059 84.6499 66.01 85.2083C65.5013 85.6811 64.3671 86.1907 62.019 86.1907C60.2682 86.1907 58.546 85.8212 56.8331 85.058C55.0929 84.2602 53.2788 83.1069 51.3933 81.5634L49.2175 79.7823L47.7032 82.1516L42.8935 89.6774L41.7822 91.4162L43.2788 92.8369C44.9378 94.4116 46.8326 95.7485 48.9496 96.8527Z" fill="white" stroke="#FF4448" stroke-width="5"/>
</svg>
