<?xml version="1.0" encoding="utf-8"?>
<!-- Generator: Adobe Illustrator 28.0.0, SVG Export Plug-In . SVG Version: 6.00 Build 0)  -->
<svg version="1.1" id="圖層_1" xmlns="http://www.w3.org/2000/svg" xmlns:xlink="http://www.w3.org/1999/xlink" x="0px" y="0px"
	 viewBox="0 0 463.5 460.3" style="enable-background:new 0 0 463.5 460.3;" xml:space="preserve">
<style type="text/css">
	.st0{fill:#FFFFFF;stroke:#E94848;stroke-width:5;stroke-miterlimit:10;}
	.st1{fill:#FFFFFF;stroke:#E5836C;stroke-width:5;stroke-miterlimit:10;}
	.st2{fill:#FFFFFF;stroke:#318EBF;stroke-width:5;stroke-miterlimit:10;}
	.st3{fill:#FFFFFF;stroke:#A08B90;stroke-width:5;stroke-miterlimit:10;}
	.st4{fill:#FFFFFF;stroke:#21ABA2;stroke-width:5;stroke-miterlimit:10;}
	.st5{fill:#FFFFFF;stroke:#A3619D;stroke-width:5;stroke-miterlimit:10;}
	.st6{fill:#FFFFFF;stroke:#F99106;stroke-width:5;stroke-miterlimit:10;}
	.st7{fill:#A3619D;}
	.st8{font-family:'NotoSansJP-Bold';}
	.st9{font-size:20px;}
	.st10{fill:#318EBF;}
	.st11{font-family:'NotoSansJP-Light';}
	.st12{font-size:12px;}
	.st13{fill:#E5836F;}
	.st14{fill:#20ACA2;}
	.st15{fill:none;}
	.st16{fill:#A08B90;}
	.st17{font-size:14px;}
	.st18{fill:#F99106;}
</style>
<polygon class="st0" points="299.5,191.1 231.7,151.9 164,191.1 164,269.3 231.7,308.4 299.5,269.3 "/>
<polygon class="st1" points="222.2,57.2 154.4,18.1 86.7,57.2 86.7,135.4 154.4,174.5 222.2,135.4 "/>
<polygon class="st2" points="376.8,57.2 309.1,18.1 241.3,57.2 241.3,135.4 309.1,174.5 376.8,135.4 "/>
<polygon class="st3" points="144.8,191.1 77.1,151.9 9.3,191.1 9.3,269.3 77.1,308.4 144.8,269.3 "/>
<polygon class="st4" points="454.1,191.1 386.4,151.9 318.7,191.1 318.7,269.3 386.4,308.4 454.1,269.3 "/>
<polygon class="st5" points="222.2,324.9 154.4,285.8 86.7,324.9 86.7,403.1 154.4,442.3 222.2,403.1 "/>
<polygon class="st6" points="376.8,324.9 309.1,285.8 241.3,324.9 241.3,403.1 309.1,442.3 376.8,403.1 "/>
<text transform="matrix(1 0 0 1 135.0755 342.3488)" class="st7 st8 st9">分析</text>
<text transform="matrix(1 0 0 1 259.0737 75.2373)" class="st10 st8 st9">社内報作成</text>
<text transform="matrix(1 0 0 1 271.0976 96.2706)" class="st10 st11 st12">入稿のしやすさ</text>
<text transform="matrix(1 0 0 1 285.0976 116.2706)" class="st10 st11 st12">読みやすさ</text>
<text transform="matrix(1 0 0 1 264.0976 136.2706)" class="st10 st11 st12">添付ファイル埋め</text>
<text transform="matrix(1 0 0 1 304.5183 156.2484)" class="st10 st11 st12">...</text>
<text transform="matrix(1 0 0 1 106.8652 98.1039)" class="st13 st11 st12">従業員データ一括</text>
<text transform="matrix(1 0 0 1 128.7359 118.1039)" class="st13 st11 st12">登録機能</text>
<text transform="matrix(1 0 0 1 113.8652 138.1039)" class="st13 st11 st12">メイン固定機能</text>
<text transform="matrix(1 0 0 1 148.6165 158.0816)" class="st13 st11 st12">...</text>
<text transform="matrix(1 0 0 1 116.6802 365.6387)" class="st7 st11 st12">ダッシュボード</text>
<text transform="matrix(1 0 0 1 106.96 385.6387)" class="st7 st11 st12">簡単にわかる分析</text>
<text transform="matrix(1 0 0 1 135.9642 405.6387)" class="st7 st11 st12">読了率</text>
<text transform="matrix(1 0 0 1 149.4644 425.6387)" class="st7 st11 st12">...</text>
<text transform="matrix(1 0 0 1 333.7321 231.5741)" class="st14 st11 st12">国際規格に準拠した</text>
<text transform="matrix(1 0 0 1 350.3043 251.5741)" class="st14 st11 st12">情報管理体制</text>
<text transform="matrix(1 0 0 1 337.4818 271.5741)" class="st14 st11 st12">安心のセキュリティ</text>
<text transform="matrix(1 0 0 1 381.8041 289.5854)" class="st14 st11 st12">...</text>
<rect x="18.9" y="241.1" class="st15" width="116.4" height="17.8"/>
<text transform="matrix(1 0 0 1 19.9001 253.4031)" class="st16 st11 st17">導入・運用サポート</text>
<text transform="matrix(1 0 0 1 255.9395 366.3154)" class="st18 st11 st12">いいね・コメント機能</text>
<text transform="matrix(1 0 0 1 258.9453 385.6387)" class="st18 st11 st12">マルチデバイス対応</text>
<text transform="matrix(1 0 0 1 273.1952 404.76)" class="st18 st11 st12">記事検索機能</text>
<text transform="matrix(1 0 0 1 304.6958 424.7378)" class="st18 st11 st12">...</text>
<text transform="matrix(1 0 0 1 48.3028 208.6463)" class="st16 st8 st9">その他</text>
<text transform="matrix(1 0 0 1 104.3616 75.5925)" class="st13 st8 st9">社内報管理</text>
<text transform="matrix(1 0 0 1 333.6741 208.6462)" class="st14 st8 st9">セキュリティ</text>
<text transform="matrix(1 0 0 1 289.4038 342.3487)" class="st18 st8 st9">閲覧</text>
<image style="overflow:visible;" width="600" height="121" xlink:href="D3EE00FD3BB933F7.png"  transform="matrix(0.2146 0 0 0.2146 167.3609 217.1649)">
</image>
</svg>
