<?xml version="1.0" encoding="utf-8"?>
<!-- Generator: Adobe Illustrator 28.0.0, SVG Export Plug-In . SVG Version: 6.00 Build 0)  -->
<svg version="1.1" id="圖層_1" xmlns="http://www.w3.org/2000/svg" xmlns:xlink="http://www.w3.org/1999/xlink" x="0px" y="0px"
	 viewBox="0 0 510.4 727.1" style="enable-background:new 0 0 510.4 727.1;" xml:space="preserve">
<style type="text/css">
	.st0{fill:#FAFAFC;}
	.st1{fill:#DFDFF4;}
	.st2{fill:#C8C8E8;}
	.st3{fill:#E9E9F8;}
</style>
<g>
	<path class="st0" d="M71.5,184.6c-0.1-3.8-0.2-6.6-0.2-8.4c0-11.1,1.6-20.6,4.7-28.6c2.3-6.1,6-12.1,11.1-18.3
		c3.8-4.5,10.5-11,20.3-19.6s16.1-15.5,19-20.6s4.4-10.7,4.4-16.7c0-10.9-4.3-20.6-12.8-28.9c-8.6-8.3-19-12.4-31.4-12.4
		c-12,0-22,3.8-30,11.3S43.3,61.6,40.8,77.6l-28.9-3.4c2.6-21.4,10.4-37.8,23.2-49.1C48,13.7,65,8.1,86.2,8.1
		c22.4,0,40.3,6.1,53.7,18.3s20,27,20,44.3c0,10-2.4,19.2-7,27.7c-4.7,8.4-13.9,18.7-27.5,30.8c-9.2,8.1-15.2,14.1-18,18
		s-4.9,8.3-6.3,13.3s-2.1,13.1-2.4,24.4H71.5V184.6z M69.7,241.1V209h32.1v32.1H69.7z"/>
</g>
<g>
	<path class="st1" d="M120.4,613.2c-0.2-6-0.2-10.6-0.2-13.6c0-17.8,2.5-33.1,7.5-46c3.7-9.7,9.6-19.5,17.9-29.4
		c6-7.2,16.9-17.7,32.6-31.5s25.9-24.8,30.5-33.1c4.7-8.2,7-17.2,7-26.9c0-17.6-6.9-33.1-20.6-46.4s-30.6-20-50.5-20
		c-19.3,0-35.4,6-48.3,18.1S74.9,415.3,70.9,441l-46.5-5.5c4.2-34.4,16.6-60.7,37.3-78.9c20.7-18.3,48.1-27.4,82.1-27.4
		c36,0,64.8,9.8,86.2,29.4c21.5,19.6,32.2,43.3,32.2,71.1c0,16.1-3.8,30.9-11.3,44.5c-7.5,13.6-22.3,30.1-44.2,49.5
		c-14.8,13.1-24.4,22.7-28.9,28.9s-7.9,13.3-10.1,21.4c-2.2,8-3.4,21.1-3.8,39.2L120.4,613.2L120.4,613.2z M117.6,703.9v-51.5h51.5
		v51.5H117.6z"/>
</g>
<g>
	<path class="st2" d="M332.6,290.2c-0.1-4.2-0.2-7.4-0.2-9.5c0-12.4,1.8-23.1,5.3-32.2c2.6-6.8,6.7-13.6,12.5-20.6
		c4.2-5,11.8-12.4,22.8-22.1c11-9.7,18.1-17.4,21.3-23.1c3.3-5.7,4.9-12,4.9-18.8c0-12.3-4.8-23.1-14.4-32.4
		c-9.6-9.3-21.4-14-35.3-14c-13.5,0-24.7,4.2-33.8,12.6c-9,8.4-14.9,21.6-17.8,39.5l-32.5-3.9c2.9-24,11.6-42.4,26.1-55.2
		C306,98,325.1,91.6,348.9,91.6c25.2,0,45.3,6.9,60.3,20.6s22.5,30.3,22.5,49.7c0,11.2-2.6,21.6-7.9,31.1
		c-5.3,9.5-15.6,21-30.9,34.6c-10.3,9.1-17,15.9-20.2,20.2c-3.2,4.3-5.5,9.3-7,14.9s-2.4,14.8-2.6,27.4L332.6,290.2L332.6,290.2z
		 M330.6,353.6v-36h36v36H330.6z"/>
</g>
<g>
	<path class="st3" d="M446.7,604.5c-0.1-2.7-0.1-4.7-0.1-6.1c0-8,1.1-14.8,3.4-20.6c1.6-4.3,4.3-8.7,8-13.2
		c2.7-3.2,7.6-7.9,14.6-14.1s11.5-11.1,13.6-14.8c2.1-3.7,3.2-7.7,3.2-12c0-7.9-3.1-14.8-9.2-20.8s-13.7-9-22.6-9
		c-8.6,0-15.8,2.7-21.6,8.1c-5.8,5.4-9.6,13.8-11.4,25.3l-20.8-2.5c1.9-15.4,7.5-27.2,16.7-35.3c9.3-8.2,21.5-12.3,36.7-12.3
		c16.1,0,29,4.4,38.6,13.2c9.6,8.8,14.4,19.4,14.4,31.8c0,7.2-1.7,13.8-5.1,19.9c-3.4,6.1-10,13.5-19.8,22.2
		c-6.6,5.8-10.9,10.2-12.9,12.9c-2,2.8-3.5,6-4.5,9.6s-1.5,9.5-1.7,17.6L446.7,604.5L446.7,604.5z M445.5,645.1V622h23.1v23.1H445.5
		z"/>
</g>
</svg>
